<?xml version="1.0" standalone="no"?>
<!DOCTYPE svg PUBLIC "-//W3C//DTD SVG 20010904//EN"
 "http://www.w3.org/TR/2001/REC-SVG-20010904/DTD/svg10.dtd">
<svg version="1.0" xmlns="http://www.w3.org/2000/svg"
 width="713.000000pt" height="713.000000pt" viewBox="0 0 713.000000 713.000000"
 preserveAspectRatio="xMidYMid meet">
<metadata>
Created by potrace 1.14, written by Peter Selinger 2001-2017
</metadata>
<g transform="translate(0.000000,713.000000) scale(0.100000,-0.100000)"
fill="#000000" stroke="none">
<path d="M3338 7125 c-2 -1 -39 -5 -83 -9 -99 -8 -158 -15 -245 -30 -75 -13
-96 -16 -130 -22 -125 -20 -511 -132 -615 -179 -16 -7 -70 -31 -120 -51 -165
-70 -375 -184 -543 -296 -40 -26 -76 -48 -81 -48 -5 0 -11 -4 -13 -8 -1 -4
-41 -37 -88 -72 -47 -35 -87 -67 -90 -70 -3 -3 -18 -16 -35 -29 -111 -85 -332
-304 -460 -456 -109 -130 -295 -390 -295 -413 0 -6 -4 -12 -8 -14 -13 -5 -113
-183 -174 -308 -51 -106 -165 -382 -173 -419 -2 -9 -15 -52 -29 -96 -28 -89
-57 -199 -62 -230 -1 -11 -3 -21 -4 -22 -3 -4 -19 -78 -26 -118 -1 -5 -3 -12
-4 -15 -2 -6 -6 -32 -14 -90 -3 -25 -8 -58 -11 -75 -4 -16 -8 -46 -10 -65 -1
-19 -7 -69 -11 -110 -10 -91 -11 -548 -1 -643 7 -64 22 -178 32 -237 2 -14 7
-45 10 -70 4 -24 11 -52 15 -61 5 -9 7 -19 4 -22 -6 -5 65 -282 90 -355 8 -23
16 -46 17 -50 4 -19 11 -39 20 -54 5 -10 9 -25 9 -33 0 -8 8 -34 19 -58 10
-23 35 -82 56 -132 37 -88 123 -266 162 -335 11 -19 29 -50 39 -69 11 -19 23
-40 27 -45 4 -6 23 -36 42 -66 19 -30 38 -59 42 -65 5 -5 17 -23 27 -40 118
-186 413 -514 629 -699 158 -135 519 -386 556 -386 5 0 11 -4 13 -9 3 -8 348
-180 371 -185 7 -2 26 -9 42 -15 40 -17 139 -55 145 -56 3 -1 43 -14 90 -29
47 -15 92 -29 100 -31 8 -2 15 -4 15 -5 0 -1 7 -3 15 -5 8 -2 50 -13 93 -24
82 -21 218 -50 277 -57 19 -3 46 -8 60 -11 14 -3 27 -6 30 -5 3 0 50 -6 105
-13 99 -13 747 -15 805 -2 14 3 48 8 75 12 62 9 104 15 130 19 11 2 38 7 60
11 150 24 567 146 651 190 15 7 31 12 35 10 4 -3 12 2 19 10 7 8 19 15 27 15
22 0 278 127 388 193 55 33 109 65 120 71 26 14 168 109 175 117 3 3 31 24 63
48 200 146 476 413 637 616 223 280 406 593 530 905 74 185 145 417 174 565 3
11 9 40 14 65 6 25 13 65 17 90 3 25 10 68 15 95 19 103 22 158 25 485 2 243
-1 362 -11 435 -7 55 -16 120 -19 145 -31 255 -155 667 -283 939 -19 42 -35
79 -34 83 1 3 -5 12 -13 18 -8 7 -15 18 -15 24 0 14 -135 253 -155 276 -8 8
-14 20 -15 25 0 6 -8 19 -18 30 -9 11 -23 33 -31 48 -8 15 -18 27 -23 27 -4 0
-8 5 -8 11 0 11 -28 50 -140 192 -113 143 -230 269 -399 427 -9 8 -43 38 -76
65 -33 28 -62 53 -65 56 -3 3 -32 25 -65 50 -33 24 -62 47 -65 50 -11 13 -200
139 -298 198 -85 51 -294 162 -312 166 -3 1 -35 15 -71 32 -37 17 -84 36 -105
43 -22 7 -43 16 -49 20 -11 9 -275 98 -308 104 -12 3 -23 5 -24 7 -2 1 -6 2
-10 3 -5 1 -51 12 -103 25 -52 13 -104 25 -115 27 -39 8 -90 18 -95 19 -3 1
-32 5 -65 9 -33 5 -69 10 -80 12 -11 2 -45 7 -75 10 -30 3 -66 8 -80 10 -26 6
-556 14 -562 9z"/>
</g>
</svg>
